<?xml version="1.0" encoding="UTF-8" standalone="no"?>
<!-- Created with Inkscape (http://www.inkscape.org/) -->

<svg
   width="1200"
   height="170"
   viewBox="0 0 317.5 44.979149"
   version="1.1"
   id="svg5"
   inkscape:version="1.2-dev (9ee32be, 2021-06-19)"
   sodipodi:docname="InterSociety_Logo_2025-simple_vectorWhite.svg"
   xmlns:inkscape="http://www.inkscape.org/namespaces/inkscape"
   xmlns:sodipodi="http://sodipodi.sourceforge.net/DTD/sodipodi-0.dtd"
   xmlns="http://www.w3.org/2000/svg"
   xmlns:svg="http://www.w3.org/2000/svg">
  <style>
    /* Artwork is authored white-on-transparent for dark backgrounds; on a
       light background (prefers-color-scheme: light, i.e. the site's
       default theme) swap every fill to the dark text color instead. */
    @media (prefers-color-scheme: light) {
      #layer4 [style*="fill:#ffffff"] {
        fill: #16181d !important;
      }
    }
  </style>
  <sodipodi:namedview
     id="namedview7"
     pagecolor="#ffffff"
     bordercolor="#666666"
     borderopacity="1.0"
     inkscape:pageshadow="2"
     inkscape:pageopacity="0.0"
     inkscape:pagecheckerboard="true"
     inkscape:document-units="px"
     showgrid="false"
     inkscape:snap-text-baseline="true"
     inkscape:snap-global="true"
     inkscape:snap-page="false"
     inkscape:snap-grids="false"
     inkscape:snap-to-guides="false"
     showguides="true"
     inkscape:guide-bbox="true"
     inkscape:zoom="1.52"
     inkscape:cx="519.73684"
     inkscape:cy="72.368421"
     inkscape:window-width="2545"
     inkscape:window-height="1316"
     inkscape:window-x="2567"
     inkscape:window-y="25"
     inkscape:window-maximized="0"
     inkscape:current-layer="layer4"
     showborder="true"
     inkscape:showpageshadow="false"
     units="px" />
  <defs
     id="defs2">
    <marker
       style="overflow:visible"
       id="marker26745"
       refX="0"
       refY="0"
       orient="auto"
       inkscape:stockid="DotM"
       inkscape:isstock="true">
      <path
         transform="matrix(0.4,0,0,0.4,2.96,0.4)"
         style="fill:context-stroke;fill-rule:evenodd;stroke:context-stroke;stroke-width:1pt"
         d="m -2.5,-1 c 0,2.76 -2.24,5 -5,5 -2.76,0 -5,-2.24 -5,-5 0,-2.76 2.24,-5 5,-5 2.76,0 5,2.24 5,5 z"
         id="path26743" />
    </marker>
    <marker
       style="overflow:visible"
       id="DotL"
       refX="0"
       refY="0"
       orient="auto"
       inkscape:stockid="DotL"
       inkscape:isstock="true">
      <path
         transform="matrix(0.8,0,0,0.8,5.92,0.8)"
         style="fill:context-stroke;fill-rule:evenodd;stroke:context-stroke;stroke-width:1pt"
         d="m -2.5,-1 c 0,2.76 -2.24,5 -5,5 -2.76,0 -5,-2.24 -5,-5 0,-2.76 2.24,-5 5,-5 2.76,0 5,2.24 5,5 z"
         id="path26454" />
    </marker>
    <marker
       style="overflow:visible"
       id="marker26727"
       refX="0"
       refY="0"
       orient="auto"
       inkscape:stockid="DotM"
       inkscape:isstock="true">
      <path
         transform="matrix(0.4,0,0,0.4,2.96,0.4)"
         style="fill:context-stroke;fill-rule:evenodd;stroke:context-stroke;stroke-width:1pt"
         d="m -2.5,-1 c 0,2.76 -2.24,5 -5,5 -2.76,0 -5,-2.24 -5,-5 0,-2.76 2.24,-5 5,-5 2.76,0 5,2.24 5,5 z"
         id="path26725" />
    </marker>
    <marker
       style="overflow:visible"
       id="marker26717"
       refX="0"
       refY="0"
       orient="auto"
       inkscape:stockid="DotS"
       inkscape:isstock="true">
      <path
         transform="matrix(0.2,0,0,0.2,1.48,0.2)"
         style="fill:context-stroke;fill-rule:evenodd;stroke:context-stroke;stroke-width:1pt"
         d="m -2.5,-1 c 0,2.76 -2.24,5 -5,5 -2.76,0 -5,-2.24 -5,-5 0,-2.76 2.24,-5 5,-5 2.76,0 5,2.24 5,5 z"
         id="path26715" />
    </marker>
    <marker
       style="overflow:visible"
       id="marker26701"
       refX="0"
       refY="0"
       orient="auto"
       inkscape:stockid="DotS"
       inkscape:isstock="true">
      <path
         transform="matrix(0.2,0,0,0.2,1.48,0.2)"
         style="fill:context-stroke;fill-rule:evenodd;stroke:context-stroke;stroke-width:1pt"
         d="m -2.5,-1 c 0,2.76 -2.24,5 -5,5 -2.76,0 -5,-2.24 -5,-5 0,-2.76 2.24,-5 5,-5 2.76,0 5,2.24 5,5 z"
         id="path26699" />
    </marker>
    <marker
       style="overflow:visible"
       id="Arrow2Send"
       refX="0"
       refY="0"
       orient="auto"
       inkscape:stockid="Arrow2Send"
       inkscape:isstock="true">
      <path
         transform="matrix(-0.3,0,0,-0.3,0.69,0)"
         d="M 8.7185878,4.0337352 -2.2072895,0.01601326 8.7185884,-4.0017078 c -1.7454984,2.3720609 -1.7354408,5.6174519 -6e-7,8.035443 z"
         style="fill:context-stroke;fill-rule:evenodd;stroke-width:0.625;stroke-linejoin:round"
         id="path26426" />
    </marker>
    <marker
       style="overflow:visible"
       id="marker26679"
       refX="0"
       refY="0"
       orient="auto"
       inkscape:stockid="DotS"
       inkscape:isstock="true">
      <path
         transform="matrix(0.2,0,0,0.2,1.48,0.2)"
         style="fill:context-stroke;fill-rule:evenodd;stroke:context-stroke;stroke-width:1pt"
         d="m -2.5,-1 c 0,2.76 -2.24,5 -5,5 -2.76,0 -5,-2.24 -5,-5 0,-2.76 2.24,-5 5,-5 2.76,0 5,2.24 5,5 z"
         id="path26677" />
    </marker>
    <marker
       style="overflow:visible"
       id="DotS"
       refX="0"
       refY="0"
       orient="auto"
       inkscape:stockid="DotS"
       inkscape:isstock="true">
      <path
         transform="matrix(0.2,0,0,0.2,1.48,0.2)"
         style="fill:context-stroke;fill-rule:evenodd;stroke:context-stroke;stroke-width:1pt"
         d="m -2.5,-1 c 0,2.76 -2.24,5 -5,5 -2.76,0 -5,-2.24 -5,-5 0,-2.76 2.24,-5 5,-5 2.76,0 5,2.24 5,5 z"
         id="path26460" />
    </marker>
    <marker
       style="overflow:visible"
       id="DotM"
       refX="0"
       refY="0"
       orient="auto"
       inkscape:stockid="DotM"
       inkscape:isstock="true">
      <path
         transform="matrix(0.4,0,0,0.4,2.96,0.4)"
         style="fill:context-stroke;fill-rule:evenodd;stroke:context-stroke;stroke-width:1pt"
         d="m -2.5,-1 c 0,2.76 -2.24,5 -5,5 -2.76,0 -5,-2.24 -5,-5 0,-2.76 2.24,-5 5,-5 2.76,0 5,2.24 5,5 z"
         id="path26457" />
    </marker>
    <marker
       style="overflow:visible"
       id="Arrow1Lstart"
       refX="0"
       refY="0"
       orient="auto"
       inkscape:stockid="Arrow1Lstart"
       inkscape:isstock="true">
      <path
         transform="matrix(0.8,0,0,0.8,10,0)"
         style="fill:context-stroke;fill-rule:evenodd;stroke:context-stroke;stroke-width:1pt"
         d="M 0,0 5,-5 -12.5,0 5,5 Z"
         id="path26393" />
    </marker>
    <marker
       style="overflow:visible"
       id="marker26745-9"
       refX="0"
       refY="0"
       orient="auto"
       inkscape:stockid="DotM"
       inkscape:isstock="true">
      <path
         transform="matrix(0.4,0,0,0.4,2.96,0.4)"
         style="fill:context-stroke;fill-rule:evenodd;stroke:context-stroke;stroke-width:1pt"
         d="m -2.5,-1 c 0,2.76 -2.24,5 -5,5 -2.76,0 -5,-2.24 -5,-5 0,-2.76 2.24,-5 5,-5 2.76,0 5,2.24 5,5 z"
         id="path26743-0" />
    </marker>
    <marker
       style="overflow:visible"
       id="marker26745-9-0"
       refX="0"
       refY="0"
       orient="auto"
       inkscape:stockid="DotM"
       inkscape:isstock="true">
      <path
         transform="matrix(0.4,0,0,0.4,2.96,0.4)"
         style="fill:context-stroke;fill-rule:evenodd;stroke:context-stroke;stroke-width:1pt"
         d="m -2.5,-1 c 0,2.76 -2.24,5 -5,5 -2.76,0 -5,-2.24 -5,-5 0,-2.76 2.24,-5 5,-5 2.76,0 5,2.24 5,5 z"
         id="path26743-0-2" />
    </marker>
    <marker
       style="overflow:visible"
       id="DotS-3"
       refX="0"
       refY="0"
       orient="auto"
       inkscape:stockid="DotS"
       inkscape:isstock="true">
      <path
         transform="matrix(0.2,0,0,0.2,1.48,0.2)"
         style="fill:context-stroke;fill-rule:evenodd;stroke:context-stroke;stroke-width:1pt"
         d="m -2.5,-1 c 0,2.76 -2.24,5 -5,5 -2.76,0 -5,-2.24 -5,-5 0,-2.76 2.24,-5 5,-5 2.76,0 5,2.24 5,5 z"
         id="path26460-0" />
    </marker>
    <marker
       style="overflow:visible"
       id="marker26745-90"
       refX="0"
       refY="0"
       orient="auto"
       inkscape:stockid="DotM"
       inkscape:isstock="true">
      <path
         transform="matrix(0.4,0,0,0.4,2.96,0.4)"
         style="fill:context-stroke;fill-rule:evenodd;stroke:context-stroke;stroke-width:1pt"
         d="m -2.5,-1 c 0,2.76 -2.24,5 -5,5 -2.76,0 -5,-2.24 -5,-5 0,-2.76 2.24,-5 5,-5 2.76,0 5,2.24 5,5 z"
         id="path26743-3" />
    </marker>
    <marker
       style="overflow:visible"
       id="marker33174"
       refX="0"
       refY="0"
       orient="auto"
       inkscape:stockid="DotM"
       inkscape:isstock="true">
      <path
         transform="matrix(0.4,0,0,0.4,2.96,0.4)"
         style="fill:context-stroke;fill-rule:evenodd;stroke:context-stroke;stroke-width:1pt"
         d="m -2.5,-1 c 0,2.76 -2.24,5 -5,5 -2.76,0 -5,-2.24 -5,-5 0,-2.76 2.24,-5 5,-5 2.76,0 5,2.24 5,5 z"
         id="path33172" />
    </marker>
    <marker
       style="overflow:visible"
       id="marker26745-9-1"
       refX="0"
       refY="0"
       orient="auto"
       inkscape:stockid="DotM"
       inkscape:isstock="true">
      <path
         transform="matrix(0.4,0,0,0.4,2.96,0.4)"
         style="fill:context-stroke;fill-rule:evenodd;stroke:context-stroke;stroke-width:1pt"
         d="m -2.5,-1 c 0,2.76 -2.24,5 -5,5 -2.76,0 -5,-2.24 -5,-5 0,-2.76 2.24,-5 5,-5 2.76,0 5,2.24 5,5 z"
         id="path26743-0-1" />
    </marker>
    <marker
       style="overflow:visible"
       id="marker26745-9-0-5"
       refX="0"
       refY="0"
       orient="auto"
       inkscape:stockid="DotM"
       inkscape:isstock="true">
      <path
         transform="matrix(0.4,0,0,0.4,2.96,0.4)"
         style="fill:context-stroke;fill-rule:evenodd;stroke:context-stroke;stroke-width:1pt"
         d="m -2.5,-1 c 0,2.76 -2.24,5 -5,5 -2.76,0 -5,-2.24 -5,-5 0,-2.76 2.24,-5 5,-5 2.76,0 5,2.24 5,5 z"
         id="path26743-0-2-3" />
    </marker>
    <marker
       style="overflow:visible"
       id="marker26717-9"
       refX="0"
       refY="0"
       orient="auto"
       inkscape:stockid="DotS"
       inkscape:isstock="true">
      <path
         transform="matrix(0.2,0,0,0.2,1.48,0.2)"
         style="fill:context-stroke;fill-rule:evenodd;stroke:context-stroke;stroke-width:1pt"
         d="m -2.5,-1 c 0,2.76 -2.24,5 -5,5 -2.76,0 -5,-2.24 -5,-5 0,-2.76 2.24,-5 5,-5 2.76,0 5,2.24 5,5 z"
         id="path26715-6" />
    </marker>
    <marker
       style="overflow:visible"
       id="marker33184"
       refX="0"
       refY="0"
       orient="auto"
       inkscape:stockid="DotM"
       inkscape:isstock="true">
      <path
         transform="matrix(0.4,0,0,0.4,2.96,0.4)"
         style="fill:context-stroke;fill-rule:evenodd;stroke:context-stroke;stroke-width:1pt"
         d="m -2.5,-1 c 0,2.76 -2.24,5 -5,5 -2.76,0 -5,-2.24 -5,-5 0,-2.76 2.24,-5 5,-5 2.76,0 5,2.24 5,5 z"
         id="path33182" />
    </marker>
    <marker
       style="overflow:visible"
       id="marker26701-3"
       refX="0"
       refY="0"
       orient="auto"
       inkscape:stockid="DotS"
       inkscape:isstock="true">
      <path
         transform="matrix(0.2,0,0,0.2,1.48,0.2)"
         style="fill:context-stroke;fill-rule:evenodd;stroke:context-stroke;stroke-width:1pt"
         d="m -2.5,-1 c 0,2.76 -2.24,5 -5,5 -2.76,0 -5,-2.24 -5,-5 0,-2.76 2.24,-5 5,-5 2.76,0 5,2.24 5,5 z"
         id="path26699-1" />
    </marker>
    <marker
       style="overflow:visible"
       id="DotS-37"
       refX="0"
       refY="0"
       orient="auto"
       inkscape:stockid="DotS"
       inkscape:isstock="true">
      <path
         transform="matrix(0.2,0,0,0.2,1.48,0.2)"
         style="fill:context-stroke;fill-rule:evenodd;stroke:context-stroke;stroke-width:1pt"
         d="m -2.5,-1 c 0,2.76 -2.24,5 -5,5 -2.76,0 -5,-2.24 -5,-5 0,-2.76 2.24,-5 5,-5 2.76,0 5,2.24 5,5 z"
         id="path26460-9" />
    </marker>
    <marker
       style="overflow:visible"
       id="marker26745-0"
       refX="0"
       refY="0"
       orient="auto"
       inkscape:stockid="DotM"
       inkscape:isstock="true">
      <path
         transform="matrix(0.4,0,0,0.4,2.96,0.4)"
         style="fill:context-stroke;fill-rule:evenodd;stroke:context-stroke;stroke-width:1pt"
         d="m -2.5,-1 c 0,2.76 -2.24,5 -5,5 -2.76,0 -5,-2.24 -5,-5 0,-2.76 2.24,-5 5,-5 2.76,0 5,2.24 5,5 z"
         id="path26743-1" />
    </marker>
    <marker
       style="overflow:visible"
       id="marker98366"
       refX="0"
       refY="0"
       orient="auto"
       inkscape:stockid="DotM"
       inkscape:isstock="true">
      <path
         transform="matrix(0.4,0,0,0.4,2.96,0.4)"
         style="fill:context-stroke;fill-rule:evenodd;stroke:context-stroke;stroke-width:1pt"
         d="m -2.5,-1 c 0,2.76 -2.24,5 -5,5 -2.76,0 -5,-2.24 -5,-5 0,-2.76 2.24,-5 5,-5 2.76,0 5,2.24 5,5 z"
         id="path98364" />
    </marker>
    <marker
       style="overflow:visible"
       id="marker26745-9-9"
       refX="0"
       refY="0"
       orient="auto"
       inkscape:stockid="DotM"
       inkscape:isstock="true">
      <path
         transform="matrix(0.4,0,0,0.4,2.96,0.4)"
         style="fill:context-stroke;fill-rule:evenodd;stroke:context-stroke;stroke-width:1pt"
         d="m -2.5,-1 c 0,2.76 -2.24,5 -5,5 -2.76,0 -5,-2.24 -5,-5 0,-2.76 2.24,-5 5,-5 2.76,0 5,2.24 5,5 z"
         id="path26743-0-29" />
    </marker>
    <marker
       style="overflow:visible"
       id="marker26745-9-0-6"
       refX="0"
       refY="0"
       orient="auto"
       inkscape:stockid="DotM"
       inkscape:isstock="true">
      <path
         transform="matrix(0.4,0,0,0.4,2.96,0.4)"
         style="fill:context-stroke;fill-rule:evenodd;stroke:context-stroke;stroke-width:1pt"
         d="m -2.5,-1 c 0,2.76 -2.24,5 -5,5 -2.76,0 -5,-2.24 -5,-5 0,-2.76 2.24,-5 5,-5 2.76,0 5,2.24 5,5 z"
         id="path26743-0-2-9" />
    </marker>
    <marker
       style="overflow:visible"
       id="marker26717-1"
       refX="0"
       refY="0"
       orient="auto"
       inkscape:stockid="DotS"
       inkscape:isstock="true">
      <path
         transform="matrix(0.2,0,0,0.2,1.48,0.2)"
         style="fill:context-stroke;fill-rule:evenodd;stroke:context-stroke;stroke-width:1pt"
         d="m -2.5,-1 c 0,2.76 -2.24,5 -5,5 -2.76,0 -5,-2.24 -5,-5 0,-2.76 2.24,-5 5,-5 2.76,0 5,2.24 5,5 z"
         id="path26715-60" />
    </marker>
    <marker
       style="overflow:visible"
       id="marker98376"
       refX="0"
       refY="0"
       orient="auto"
       inkscape:stockid="DotM"
       inkscape:isstock="true">
      <path
         transform="matrix(0.4,0,0,0.4,2.96,0.4)"
         style="fill:context-stroke;fill-rule:evenodd;stroke:context-stroke;stroke-width:1pt"
         d="m -2.5,-1 c 0,2.76 -2.24,5 -5,5 -2.76,0 -5,-2.24 -5,-5 0,-2.76 2.24,-5 5,-5 2.76,0 5,2.24 5,5 z"
         id="path98374" />
    </marker>
    <marker
       style="overflow:visible"
       id="marker26701-1"
       refX="0"
       refY="0"
       orient="auto"
       inkscape:stockid="DotS"
       inkscape:isstock="true">
      <path
         transform="matrix(0.2,0,0,0.2,1.48,0.2)"
         style="fill:context-stroke;fill-rule:evenodd;stroke:context-stroke;stroke-width:1pt"
         d="m -2.5,-1 c 0,2.76 -2.24,5 -5,5 -2.76,0 -5,-2.24 -5,-5 0,-2.76 2.24,-5 5,-5 2.76,0 5,2.24 5,5 z"
         id="path26699-0" />
    </marker>
  </defs>
  <g
     inkscape:groupmode="layer"
     id="layer3"
     inkscape:label="Text"
     style="display:inline">
    <text
       xml:space="preserve"
       style="font-style:italic;font-size:10.5833px;line-height:1.25;font-family:sans-serif;-inkscape-font-specification:'sans-serif Italic';stroke-width:0.264583"
       x="250.18172"
       y="182.52283"
       id="text72316"><tspan
         sodipodi:role="line"
         id="tspan72314"
         style="stroke-width:0.264583"
         x="250.18172"
         y="182.52283" /></text>
  </g>
  <g
     inkscape:groupmode="layer"
     id="layer2"
     inkscape:label="Film"
     style="display:inline;opacity:1" />
  <g
     inkscape:groupmode="layer"
     id="layer4"
     inkscape:label="Board"
     style="display:inline">
    <g
       id="g2101"
       style="fill:#ffffff;fill-opacity:1">
      <g
         id="g2028"
         style="fill:#ffffff;fill-opacity:1">
        <g
           aria-label="INTER"
           transform="matrix(1.1053249,0,0,0.98589241,-0.77700415,1.0268611)"
           id="text10811"
           style="font-size:33.3795px;line-height:1.25;font-family:'Euphemia UCAS';-inkscape-font-specification:'Euphemia UCAS, Normal';stroke-width:0.834489;fill:#ffffff;fill-opacity:1">
          <path
             d="M 5.8112828,34.040867 V 8.5009847 H 8.5820422 V 34.040867 Z"
             id="path1545"
             style="fill:#ffffff;fill-opacity:1" />
          <path
             d="m 16.226078,13.064588 v 20.976279 h -2.754461 l -0.0163,-25.5398823 h 2.770759 l 12.6966,21.0740703 V 8.5009847 h 2.770759 V 34.040867 h -2.656669 z"
             id="path1547"
             style="fill:#ffffff;fill-opacity:1" />
          <path
             d="m 53.289058,10.847981 h -7.93741 v 23.192886 h -2.77076 V 10.847981 H 34.676075 V 8.5009847 h 18.612983 z"
             id="path1549"
             style="fill:#ffffff;fill-opacity:1" />
          <path
             d="M 69.897317,10.750189 H 59.026161 v 8.703445 h 8.670847 v 2.135114 h -8.670847 v 10.202914 h 11.360113 v 2.249205 H 56.255401 V 8.5009847 h 13.641916 z"
             id="path1551"
             style="fill:#ffffff;fill-opacity:1" />
          <path
             d="m 77.068698,21.050895 h 2.65667 q 3.276015,0 5.052561,-1.483171 1.792844,-1.483172 1.792844,-3.813869 0,-2.672968 -1.49947,-3.862765 -1.483171,-1.189796 -4.905874,-1.189796 h -3.096731 z m 0,12.989972 H 74.297939 V 8.5009847 h 6.926898 q 4.058348,0 6.128268,1.9395313 2.069921,1.923233 2.069921,5.231846 0,2.444788 -1.61356,4.351722 -1.597262,1.906934 -3.68348,2.526281 l 7.13878,11.490502 H 87.972452 L 81.387823,23.088218 q -0.211881,0.0326 -4.319125,0.06519 z"
             id="path1553"
             style="fill:#ffffff;fill-opacity:1" />
        </g>
        <g
           aria-label="SOCIETY"
           transform="matrix(1.1053249,0,0,0.98589241,-0.77700415,1.0268611)"
           id="text10811-8"
           style="font-size:33.3795px;line-height:1.25;font-family:'Euphemia UCAS';-inkscape-font-specification:'Euphemia UCAS, Normal';display:inline;stroke-width:0.834489;fill:#ffffff;fill-opacity:1">
          <path
             d="m 153.97567,29.262832 q 1.1572,1.287588 2.83595,2.265503 1.67875,0.977915 3.86276,0.977915 2.50999,0 4.00946,-1.173498 1.49947,-1.173498 1.49947,-3.373807 0,-2.151413 -1.38538,-3.194523 -1.36909,-1.043109 -4.10725,-2.053621 L 159.289,22.124052 q -2.95004,-1.04311 -4.92217,-2.803357 -1.97213,-1.760247 -1.97213,-4.661395 0,-2.950044 2.26551,-4.6776938 2.2818,-1.7439486 5.7208,-1.7439486 2.64037,0 4.40062,0.7986307 1.76024,0.782332 3.22712,2.2655037 l -1.61356,1.84174 q -1.05941,-0.977915 -2.47739,-1.760248 -1.40168,-0.79863 -3.48789,-0.79863 -2.23291,0 -3.73238,1.059408 -1.48317,1.059408 -1.48317,2.721863 0,2.037324 1.66245,3.194523 1.67876,1.140901 3.43901,1.809143 l 2.41219,1.010512 q 3.73237,1.401678 5.05256,3.015238 1.33648,1.597262 1.33648,4.205035 0,3.471599 -2.44479,5.362235 -2.44478,1.890635 -6.01417,1.890635 -1.45058,0 -2.67297,-0.211881 -1.2061,-0.195583 -2.2818,-0.635645 -1.05941,-0.440062 -2.00473,-1.124602 -0.94532,-0.684541 -1.84174,-1.646157 z"
             id="path1556"
             style="fill:#ffffff;fill-opacity:1" />
          <path
             d="m 183.83467,32.50625 q 3.17823,0 5.68821,-2.933745 2.52628,-2.933745 2.52628,-8.654549 0,-3.650883 -1.97213,-6.992092 -1.97213,-3.34121 -6.12827,-3.34121 -4.00945,0 -6.30755,2.998939 -2.2818,2.982641 -2.2818,7.611439 0,5.443728 2.41219,8.377473 2.41219,2.933745 6.06307,2.933745 z m -0.14668,2.346996 q -5.41113,0 -8.34488,-3.748674 -2.91745,-3.748675 -2.91745,-9.925838 0,-5.574116 3.29232,-9.257596 3.30861,-3.6834804 8.16559,-3.6834804 5.29704,0 8.19819,3.6834804 2.90115,3.68348 2.90115,9.730255 0,5.623011 -3.21083,9.420582 -3.21082,3.781271 -8.08409,3.781271 z"
             id="path1558"
             style="fill:#ffffff;fill-opacity:1" />
          <path
             d="m 218.01281,30.762302 q -3.11303,4.090944 -8.34488,4.090944 -5.11775,0 -7.79072,-3.830167 -2.65667,-3.830167 -2.65667,-9.567269 0,-5.688206 2.90115,-9.453179 2.90114,-3.7649734 7.85591,-3.7649734 4.6777,0 7.18768,2.8522524 l -1.79284,1.858039 q -2.00473,-2.363295 -5.49263,-2.363295 -3.3901,0 -5.57411,2.803356 -2.16771,2.787058 -2.16771,7.644037 0,4.938471 2.05362,8.214486 2.06992,3.259717 5.62301,3.259717 3.86276,0 6.45424,-3.276015 z"
             id="path1560"
             style="fill:#ffffff;fill-opacity:1" />
          <path
             d="M 221.67999,34.445782 V 8.9058996 h 2.77076 V 34.445782 Z"
             id="path1562"
             style="fill:#ffffff;fill-opacity:1" />
          <path
             d="m 242.98223,11.155104 h -10.87115 v 8.703444 h 8.67084 v 2.135115 h -8.67084 v 10.202914 h 11.36011 v 2.249205 H 229.34032 V 8.9058996 h 13.64191 z"
             id="path1564"
             style="fill:#ffffff;fill-opacity:1" />
          <path
             d="m 264.0726,11.252896 h -7.93741 v 23.192886 h -2.77076 V 11.252896 h -7.90481 V 8.9058996 h 18.61298 z"
             id="path1566"
             style="fill:#ffffff;fill-opacity:1" />
          <path
             d="M 272.85754,34.445782 V 22.792294 L 265.3602,8.9058996 h 2.99894 l 5.93268,11.4742034 5.94898,-11.4742034 h 2.99894 L 275.6609,22.515218 v 11.930564 z"
             id="path1568"
             style="fill:#ffffff;fill-opacity:1" />
        </g>
      </g>
      <g
         id="g2012"
         style="fill:#ffffff;fill-opacity:1">
        <path
           id="rect24119"
           mask="none"
           style="display:inline;stroke-width:0.390841;fill:#ffffff;fill-opacity:1"
           d="m 107.78077,5.2134712 c -0.78596,0 -1.41863,0.6861184 -1.41863,1.5382251 V 37.641351 c 0,0.852108 0.63267,1.538226 1.41863,1.538226 h 21.99687 c 0.78596,0 1.41863,-0.686118 1.41863,-1.538226 V 6.7516963 c 0,-0.8521067 -0.63267,-1.5382251 -1.41863,-1.5382251 z m 2.01196,2.280519 h 2.88562 c 0.41908,0 0.75653,0.2675289 0.75653,0.5998767 V 10.91446 c 0,0.332334 -0.33745,0.599877 -0.75653,0.599877 h -2.88562 c -0.41908,0 -0.75653,-0.267543 -0.75653,-0.599877 V 8.0938669 c 0,-0.3323478 0.33745,-0.5998767 0.75653,-0.5998767 z m 7.54366,0 h 2.88563 c 0.41908,0 0.75652,0.2675286 0.75652,0.5998767 V 10.91446 c 0,0.332335 -0.33744,0.599877 -0.75652,0.599877 h -2.88563 c -0.41909,0 -0.75652,-0.267542 -0.75652,-0.599877 V 8.0938669 c 0,-0.3323481 0.33743,-0.5998767 0.75652,-0.5998767 z m 7.54425,0 h 2.88505 c 0.41909,0 0.75652,0.2675435 0.75652,0.5998767 V 10.91446 c 0,0.332349 -0.33743,0.599877 -0.75652,0.599877 h -2.88505 c -0.41909,0 -0.75652,-0.267528 -0.75652,-0.599877 V 8.0938669 c 0,-0.3323332 0.33743,-0.5998767 0.75652,-0.5998767 z M 109.79273,32.878095 h 2.88562 c 0.41908,0 0.75653,0.267541 0.75653,0.599877 v 2.820594 c 0,0.332342 -0.33745,0.599877 -0.75653,0.599877 h -2.88562 c -0.41908,0 -0.75653,-0.267535 -0.75653,-0.599877 v -2.820594 c 0,-0.332336 0.33745,-0.599877 0.75653,-0.599877 z m 7.54366,0 h 2.88563 c 0.41908,0 0.75652,0.267541 0.75652,0.599877 v 2.820594 c 0,0.332346 -0.33744,0.599877 -0.75652,0.599877 h -2.88563 c -0.41909,0 -0.75652,-0.267531 -0.75652,-0.599877 v -2.820594 c 0,-0.332336 0.33743,-0.599877 0.75652,-0.599877 z m 7.54425,0 h 2.88505 c 0.41909,0 0.75652,0.267528 0.75652,0.599877 v 2.820594 c 0,0.332349 -0.33743,0.599877 -0.75652,0.599877 h -2.88505 c -0.41909,0 -0.75652,-0.267528 -0.75652,-0.599877 v -2.820594 c 0,-0.332349 0.33743,-0.599877 0.75652,-0.599877 z" />
        <g
           id="g33112"
           transform="matrix(1.4599949,0,0,1.5443763,-52.749578,-223.3806)"
           style="fill:#ffffff;fill-opacity:1">
          <g
             id="path26089"
             style="fill:#ffffff;fill-opacity:1">
            <path
               style="color:#000000;fill:#ffffff;stroke-linecap:round;stroke-linejoin:round;-inkscape-stroke:none;fill-opacity:1"
               d="m 128.38867,149.39062 a 0.375,0.375 0 0 0 -0.375,0.375 0.375,0.375 0 0 0 0.375,0.375 h 4.82813 a 0.375,0.375 0 0 0 0.375,-0.375 0.375,0.375 0 0 0 -0.375,-0.375 z"
               id="path1651" />
            <g
               id="g1639"
               style="fill:#ffffff;fill-opacity:1">
              <g
                 id="path1641"
                 style="fill:#ffffff;fill-opacity:1">
                <path
                   style="color:#000000;fill:#ffffff;fill-rule:evenodd;stroke-width:0.15pt;-inkscape-stroke:none;fill-opacity:1"
                   d="m 133.95246,149.76587 c 0,0.414 -0.336,0.75 -0.75,0.75 -0.414,0 -0.75,-0.336 -0.75,-0.75 0,-0.414 0.336,-0.75 0.75,-0.75 0.414,0 0.75,0.336 0.75,0.75 z"
                   id="path1645" />
                <path
                   style="color:#000000;fill:#ffffff;fill-rule:evenodd;-inkscape-stroke:none;fill-opacity:1"
                   d="m 133.20312,148.91602 c -0.4681,0 -0.85156,0.3815 -0.85156,0.8496 0,0.46811 0.38346,0.84961 0.85156,0.84961 0.46811,0 0.84961,-0.3815 0.84961,-0.84961 0,-0.4681 -0.3815,-0.8496 -0.84961,-0.8496 z m 0,0.19921 c 0.3599,0 0.64844,0.2905 0.64844,0.65039 0,0.3599 -0.28854,0.6504 -0.64844,0.6504 -0.35989,0 -0.65039,-0.2905 -0.65039,-0.6504 0,-0.35989 0.2905,-0.65039 0.65039,-0.65039 z"
                   id="path1647" />
              </g>
            </g>
          </g>
          <g
             id="path26089-1"
             style="fill:#ffffff;fill-opacity:1">
            <path
               style="color:#000000;fill:#ffffff;stroke-linecap:round;stroke-linejoin:round;-inkscape-stroke:none;fill-opacity:1"
               d="m 143.20117,149.36914 a 0.3750375,0.3750375 0 0 0 -0.0176,0.0176 h -6.39648 a 0.3750375,0.3750375 0 0 0 -0.27344,0.11719 l -2.18359,2.32812 -5.93946,-0.0332 a 0.375,0.375 0 0 0 -0.37695,0.37304 0.375,0.375 0 0 0 0.37305,0.37696 l 6.10351,0.0332 a 0.3750375,0.3750375 0 0 0 0.27539,-0.11914 l 2.1836,-2.32617 h 6.25195 a 0.3750375,0.3750375 0 0 0 0.0176,-0.0176 h 0.13086 a 0.375,0.375 0 0 0 0.375,-0.375 0.375,0.375 0 0 0 -0.375,-0.375 z"
               id="path1669" />
            <g
               id="g1657"
               style="fill:#ffffff;fill-opacity:1">
              <g
                 id="path1659"
                 style="fill:#ffffff;fill-opacity:1">
                <path
                   style="color:#000000;fill:#ffffff;fill-rule:evenodd;stroke-width:0.3pt;-inkscape-stroke:none;fill-opacity:1"
                   d="m 144.81953,149.74333 c 0,0.828 -0.672,1.5 -1.5,1.5 -0.828,0 -1.5,-0.672 -1.5,-1.5 0,-0.828 0.672,-1.5 1.5,-1.5 0.828,0 1.5,0.672 1.5,1.5 z"
                   id="path1663" />
                <path
                   style="color:#000000;fill:#ffffff;fill-rule:evenodd;-inkscape-stroke:none;fill-opacity:1"
                   d="m 143.32031,148.04297 c -0.93621,0 -1.70117,0.76496 -1.70117,1.70117 0,0.93621 0.76496,1.69922 1.70117,1.69922 0.93621,0 1.69922,-0.76301 1.69922,-1.69922 0,-0.93621 -0.76301,-1.70117 -1.69922,-1.70117 z m 0,0.40039 c 0.71979,0 1.29883,0.58099 1.29883,1.30078 0,0.71979 -0.57904,1.29883 -1.29883,1.29883 -0.71978,0 -1.30078,-0.57904 -1.30078,-1.29883 0,-0.71979 0.581,-1.30078 1.30078,-1.30078 z"
                   id="path1665" />
              </g>
            </g>
          </g>
          <g
             id="path26089-8"
             style="fill:#ffffff;fill-opacity:1">
            <path
               style="color:#000000;fill:#ffffff;stroke-linecap:round;stroke-linejoin:round;-inkscape-stroke:none;fill-opacity:1"
               d="m 128.35547,154.1543 a 0.375,0.375 0 0 0 -0.375,0.375 0.375,0.375 0 0 0 0.375,0.375 h 14.95117 a 0.375,0.375 0 0 0 0.375,-0.375 0.375,0.375 0 0 0 -0.375,-0.375 z"
               id="path1687" />
            <g
               id="g1675"
               style="fill:#ffffff;fill-opacity:1">
              <g
                 id="path1677"
                 style="fill:#ffffff;fill-opacity:1">
                <path
                   style="color:#000000;fill:#ffffff;fill-rule:evenodd;stroke-width:0.3pt;-inkscape-stroke:none;fill-opacity:1"
                   d="m 144.77597,154.52891 c 0,0.828 -0.672,1.5 -1.5,1.5 -0.828,0 -1.5,-0.672 -1.5,-1.5 0,-0.828 0.672,-1.5 1.5,-1.5 0.828,0 1.5,0.672 1.5,1.5 z"
                   id="path1681" />
                <path
                   style="color:#000000;fill:#ffffff;fill-rule:evenodd;-inkscape-stroke:none;fill-opacity:1"
                   d="m 143.27539,152.82812 c -0.93621,0 -1.69922,0.76497 -1.69922,1.70118 0,0.93621 0.76301,1.69922 1.69922,1.69922 0.93621,0 1.70117,-0.76301 1.70117,-1.69922 0,-0.93621 -0.76496,-1.70118 -1.70117,-1.70118 z m 0,0.4004 c 0.71979,0 1.30078,0.58099 1.30078,1.30078 0,0.71978 -0.58099,1.29882 -1.30078,1.29882 -0.71979,0 -1.29883,-0.57904 -1.29883,-1.29882 0,-0.71979 0.57904,-1.30078 1.29883,-1.30078 z"
                   id="path1683" />
              </g>
            </g>
          </g>
          <g
             id="path26089-8-4"
             style="fill:#ffffff;fill-opacity:1">
            <path
               style="color:#000000;fill:#ffffff;stroke-linecap:round;stroke-linejoin:round;-inkscape-stroke:none;fill-opacity:1"
               d="m 128.35547,158.92383 a 0.375,0.375 0 0 0 -0.375,0.375 0.375,0.375 0 0 0 0.375,0.375 h 14.95117 a 0.375,0.375 0 0 0 0.375,-0.375 0.375,0.375 0 0 0 -0.375,-0.375 z"
               id="path1705" />
            <g
               id="g1693"
               style="fill:#ffffff;fill-opacity:1">
              <g
                 id="path1695"
                 style="fill:#ffffff;fill-opacity:1">
                <path
                   style="color:#000000;fill:#ffffff;fill-rule:evenodd;stroke-width:0.3pt;-inkscape-stroke:none;fill-opacity:1"
                   d="m 144.77597,159.2979 c 0,0.828 -0.672,1.5 -1.5,1.5 -0.828,0 -1.5,-0.672 -1.5,-1.5 0,-0.828 0.672,-1.5 1.5,-1.5 0.828,0 1.5,0.672 1.5,1.5 z"
                   id="path1699" />
                <path
                   style="color:#000000;fill:#ffffff;fill-rule:evenodd;-inkscape-stroke:none;fill-opacity:1"
                   d="m 143.27539,157.59766 c -0.93621,0 -1.69922,0.76496 -1.69922,1.70117 0,0.93621 0.76301,1.69922 1.69922,1.69922 0.93621,0 1.70117,-0.76301 1.70117,-1.69922 0,-0.93621 -0.76496,-1.70117 -1.70117,-1.70117 z m 0,0.40039 c 0.71979,0 1.30078,0.58099 1.30078,1.30078 0,0.71978 -0.58099,1.29883 -1.30078,1.29883 -0.71979,0 -1.29883,-0.57905 -1.29883,-1.29883 0,-0.71979 0.57904,-1.30078 1.29883,-1.30078 z"
                   id="path1701" />
              </g>
            </g>
          </g>
          <g
             id="path26089-8-4-4"
             style="fill:#ffffff;fill-opacity:1">
            <path
               style="color:#000000;fill:#ffffff;stroke-linecap:round;stroke-linejoin:round;-inkscape-stroke:none;fill-opacity:1"
               d="m 128.35547,163.45312 a 0.375,0.375 0 0 0 -0.375,0.375 0.375,0.375 0 0 0 0.375,0.375 h 14.95117 a 0.375,0.375 0 0 0 0.375,-0.375 0.375,0.375 0 0 0 -0.375,-0.375 z"
               id="path1723" />
            <g
               id="g1711"
               style="fill:#ffffff;fill-opacity:1">
              <g
                 id="path1713"
                 style="fill:#ffffff;fill-opacity:1">
                <path
                   style="color:#000000;fill:#ffffff;fill-rule:evenodd;stroke-width:0.3pt;-inkscape-stroke:none;fill-opacity:1"
                   d="m 144.77597,163.82886 c 0,0.828 -0.672,1.5 -1.5,1.5 -0.828,0 -1.5,-0.672 -1.5,-1.5 0,-0.828 0.672,-1.5 1.5,-1.5 0.828,0 1.5,0.672 1.5,1.5 z"
                   id="path1717" />
                <path
                   style="color:#000000;fill:#ffffff;fill-rule:evenodd;-inkscape-stroke:none;fill-opacity:1"
                   d="m 143.27539,162.12891 c -0.93621,0 -1.69922,0.763 -1.69922,1.69921 0,0.93622 0.76301,1.70118 1.69922,1.70118 0.93621,0 1.70117,-0.76496 1.70117,-1.70118 0,-0.93621 -0.76496,-1.69921 -1.70117,-1.69921 z m 0,0.40039 c 0.71979,0 1.30078,0.57904 1.30078,1.29882 0,0.71979 -0.58099,1.30079 -1.30078,1.30079 -0.71979,0 -1.29883,-0.581 -1.29883,-1.30079 0,-0.71978 0.57904,-1.29882 1.29883,-1.29882 z"
                   id="path1719" />
              </g>
            </g>
          </g>
          <g
             id="path26089-1-5"
             style="fill:#ffffff;fill-opacity:1">
            <path
               style="color:#000000;fill:#ffffff;stroke-linecap:round;stroke-linejoin:round;-inkscape-stroke:none;fill-opacity:1"
               d="m 128.32031,156.54492 a 0.375,0.375 0 0 0 -0.375,0.375 0.375,0.375 0 0 0 0.375,0.375 h 10.37696 a 0.375,0.375 0 0 0 0.375,-0.375 0.375,0.375 0 0 0 -0.375,-0.375 z"
               id="path1741" />
            <g
               id="g1729"
               style="fill:#ffffff;fill-opacity:1">
              <g
                 id="path1731"
                 style="fill:#ffffff;fill-opacity:1">
                <path
                   style="color:#000000;fill:#ffffff;fill-rule:evenodd;stroke-width:0.15pt;-inkscape-stroke:none;fill-opacity:1"
                   d="m 139.43272,156.92059 c 0,0.414 -0.336,0.75 -0.75,0.75 -0.414,0 -0.75,-0.336 -0.75,-0.75 0,-0.414 0.336,-0.75 0.75,-0.75 0.414,0 0.75,0.336 0.75,0.75 z"
                   id="path1735" />
                <path
                   style="color:#000000;fill:#ffffff;fill-rule:evenodd;-inkscape-stroke:none;fill-opacity:1"
                   d="m 138.68359,156.07031 c -0.4681,0 -0.85156,0.38151 -0.85156,0.84961 0,0.46811 0.38346,0.85156 0.85156,0.85156 0.46811,0 0.84961,-0.38345 0.84961,-0.85156 0,-0.4681 -0.3815,-0.84961 -0.84961,-0.84961 z m 0,0.20117 c 0.3599,0 0.64844,0.28855 0.64844,0.64844 0,0.3599 -0.28854,0.65039 -0.64844,0.65039 -0.35989,0 -0.65039,-0.29049 -0.65039,-0.65039 0,-0.35989 0.2905,-0.64844 0.65039,-0.64844 z"
                   id="path1737" />
              </g>
            </g>
          </g>
          <path
             style="color:#000000;fill:#ffffff;stroke-linecap:round;stroke-linejoin:round;-inkscape-stroke:none;fill-opacity:1"
             d="m 128.39062,161.08008 a 0.375,0.375 0 0 0 -0.37695,0.37304 0.375,0.375 0 0 0 0.37305,0.37696 l 4.79101,0.0332 3.55469,2.20508 a 0.375,0.375 0 0 0 0.51563,-0.12109 0.375,0.375 0 0 0 -0.1211,-0.51563 l -3.64453,-2.25977 a 0.3750375,0.3750375 0 0 0 -0.19531,-0.0566 z"
             id="path26089-1-1" />
          <g
             id="path26089-1-3"
             style="fill:#ffffff;fill-opacity:1">
            <path
               style="color:#000000;fill:#ffffff;stroke-linecap:round;stroke-linejoin:round;-inkscape-stroke:none;fill-opacity:1"
               d="m 128.42578,165.98047 a 0.37635949,0.37635949 0 0 0 -0.37695,0.375 0.37635949,0.37635949 0 0 0 0.375,0.37695 l 6.74414,0.0176 2.19726,1.84375 a 0.37639713,0.37639713 0 0 0 0.23829,0.0879 l 5.70703,0.0488 a 0.37635949,0.37635949 0 0 0 0.3789,-0.37305 0.37635949,0.37635949 0 0 0 -0.37304,-0.38086 l -5.57227,-0.0469 -2.19727,-1.84375 a 0.37639713,0.37639713 0 0 0 -0.24023,-0.0879 z"
               id="path1765" />
            <g
               id="g1753"
               style="fill:#ffffff;fill-opacity:1">
              <g
                 id="path1755"
                 style="fill:#ffffff;fill-opacity:1">
                <path
                   style="color:#000000;fill:#ffffff;fill-rule:evenodd;stroke-width:0.301088pt;-inkscape-stroke:none;fill-opacity:1"
                   d="m 144.78923,168.36665 c -0.007,0.83097 -0.68744,1.49954 -1.51841,1.49235 -0.83097,-0.007 -1.49954,-0.68744 -1.49235,-1.51841 0.007,-0.83097 0.68744,-1.49954 1.51841,-1.49235 0.83097,0.007 1.49955,0.68744 1.49235,1.51841 z"
                   id="path1759" />
                <path
                   style="color:#000000;fill:#ffffff;fill-rule:evenodd;-inkscape-stroke:none;fill-opacity:1"
                   d="m 143.29883,166.64844 c -0.93892,-0.008 -1.71174,0.75072 -1.72071,1.68945 -0.008,0.93957 0.75178,1.71474 1.69141,1.72266 0.93957,0.008 1.71279,-0.75178 1.7207,-1.69141 0.008,-0.93957 -0.75178,-1.71279 -1.6914,-1.7207 z m -0.004,0.40039 c 0.72231,0.006 1.29923,0.59404 1.29297,1.3164 -0.006,0.72232 -0.59208,1.29922 -1.31445,1.29297 -0.72231,-0.006 -1.30117,-0.59403 -1.29492,-1.3164 0.006,-0.72231 0.59403,-1.29922 1.3164,-1.29297 z"
                   id="path1761" />
              </g>
            </g>
          </g>
          <g
             id="path26089-1-0"
             style="fill:#ffffff;fill-opacity:1">
            <path
               style="color:#000000;fill:#ffffff;stroke-linecap:round;stroke-linejoin:round;-inkscape-stroke:none;fill-opacity:1"
               d="m 128.35547,168.80859 a 0.375,0.375 0 0 0 -0.375,0.375 0.375,0.375 0 0 0 0.375,0.375 h 6.83789 a 0.375,0.375 0 0 0 0.375,-0.375 0.375,0.375 0 0 0 -0.375,-0.375 z"
               id="path1783" />
            <g
               id="g1771"
               style="fill:#ffffff;fill-opacity:1">
              <g
                 id="path1773"
                 style="fill:#ffffff;fill-opacity:1">
                <path
                   style="color:#000000;fill:#ffffff;fill-rule:evenodd;stroke-width:0.15pt;-inkscape-stroke:none;fill-opacity:1"
                   d="m 135.92853,169.18424 c 0,0.414 -0.336,0.75 -0.75,0.75 -0.414,0 -0.75,-0.336 -0.75,-0.75 0,-0.414 0.336,-0.75 0.75,-0.75 0.414,0 0.75,0.336 0.75,0.75 z"
                   id="path1777" />
                <path
                   style="color:#000000;fill:#ffffff;fill-rule:evenodd;-inkscape-stroke:none;fill-opacity:1"
                   d="m 135.17773,168.33398 c -0.4681,0 -0.84961,0.38151 -0.84961,0.84961 0,0.46811 0.38151,0.85157 0.84961,0.85157 0.46811,0 0.85157,-0.38346 0.85157,-0.85157 0,-0.4681 -0.38346,-0.84961 -0.85157,-0.84961 z m 0,0.20118 c 0.3599,0 0.65039,0.28854 0.65039,0.64843 0,0.3599 -0.29049,0.65039 -0.65039,0.65039 -0.35989,0 -0.64843,-0.29049 -0.64843,-0.65039 0,-0.35989 0.28854,-0.64843 0.64843,-0.64843 z"
                   id="path1779" />
              </g>
            </g>
          </g>
          <g
             id="g28500"
             transform="translate(-0.05920023,0.52916667)"
             style="fill:#ffffff;fill-opacity:1">
            <path
               style="color:#000000;fill:#ffffff;stroke-width:0.750001;stroke-linecap:round;stroke-linejoin:round;-inkscape-stroke:none;fill-opacity:1"
               d="m 139.60895,151.70059 a 0.8288033,0.8288033 0 0 1 -0.8288,0.82881 0.8288033,0.8288033 0 0 1 -0.8288,-0.82881 0.8288033,0.8288033 0 0 1 0.8288,-0.8288 0.8288033,0.8288033 0 0 1 0.8288,0.8288 z"
               id="path28371" />
            <path
               style="color:#000000;fill:#ffffff;stroke-width:0.750001;stroke-linecap:round;stroke-linejoin:round;-inkscape-stroke:none;fill-opacity:1"
               d="m 139.60895,160.93584 a 0.8288033,0.8288033 0 0 1 -0.8288,0.8288 0.8288033,0.8288033 0 0 1 -0.8288,-0.8288 0.8288033,0.8288033 0 0 1 0.8288,-0.82881 0.8288033,0.8288033 0 0 1 0.8288,0.82881 z"
               id="path28371-2" />
            <path
               style="color:#000000;fill:#ffffff;stroke-width:0.750001;stroke-linecap:round;stroke-linejoin:round;-inkscape-stroke:none;fill-opacity:1"
               d="m 139.60895,165.61266 a 0.8288033,0.8288033 0 0 1 -0.8288,0.8288 0.8288033,0.8288033 0 0 1 -0.8288,-0.8288 0.8288033,0.8288033 0 0 1 0.8288,-0.82881 0.8288033,0.8288033 0 0 1 0.8288,0.82881 z"
               id="path28371-2-3" />
          </g>
        </g>
      </g>
    </g>
  </g>
</svg>
