<?xml version="1.0" encoding="UTF-8"?>
<svg id="Layer_1" xmlns="http://www.w3.org/2000/svg" xmlns:xlink="http://www.w3.org/1999/xlink" version="1.1" viewBox="0 0 557.1 72">
  <!-- Generator: Adobe Illustrator 29.5.0, SVG Export Plug-In . SVG Version: 2.1.0 Build 137)  -->
  <defs>
    <style>
      .st0 {
        fill: none;
      }

      .st1 {
        fill: #75f2fc;
      }

      .st2 {
        fill: #e54a35;
      }

      .st3 {
        fill: #08104d;
      }

      .st4 {
        fill: #ffec39;
      }

      .st5 {
        fill: #9361db;
      }

      .st6 {
        fill: #b2f95f;
      }

      .st7 {
        fill: #ffa04a;
      }

      .st8 {
        clip-path: url(#clippath);
      }
    </style>
    <clipPath id="clippath">
      <path class="st0" d="M54,18V0H0v54h18V18h36ZM54,18v36H18v18h54V18h-18Z"/>
    </clipPath>
  </defs>
  <g class="st8">
    <g>
      <rect class="st2" x="-43.4" y="-4.7" width="101.9" height="17" transform="translate(-.5 6.5) rotate(-45)"/>
      <rect class="st7" x="-31.3" y="7.4" width="101.9" height="17" transform="translate(-5.5 18.5) rotate(-45)"/>
      <rect class="st4" x="-19.3" y="19.4" width="101.9" height="17" transform="translate(-10.5 30.6) rotate(-45)"/>
      <rect class="st6" x="-7.2" y="31.5" width="101.9" height="17" transform="translate(-15.5 42.6) rotate(-45)"/>
      <rect class="st1" x="4.8" y="43.5" width="101.9" height="17" transform="translate(-20.5 54.7) rotate(-45)"/>
      <rect class="st5" x="16.9" y="55.6" width="101.9" height="17" transform="translate(-25.5 66.7) rotate(-45)"/>
    </g>
  </g>
  <path class="st3" d="M207.8,9.9c-4.5-2.5-9.6-3.8-15-3.8s-10.4,1.3-15,3.8c-4.5,2.6-8.2,6.1-10.8,10.6-2.7,4.5-4,9.6-4,15.3s1.3,10.8,4,15.3c2.7,4.5,6.3,8.1,10.8,10.6,4.6,2.6,9.5,3.8,15,3.8s10.4-1.3,15-3.8c4.5-2.6,8.1-6.1,10.8-10.6,2.6-4.5,3.9-9.7,3.9-15.3s-1.3-10.8-3.9-15.3c-2.6-4.5-6.2-8.1-10.7-10.6ZM208.3,46c-1.5,2.9-3.6,5.2-6.2,6.8-2.7,1.6-5.7,2.4-9.2,2.4s-6.6-.8-9.3-2.4c-2.7-1.6-4.8-3.8-6.3-6.8s-2.2-6.4-2.2-10.2.8-7.3,2.2-10.2,3.6-5.2,6.3-6.7c2.7-1.6,5.8-2.3,9.3-2.3s6.6.8,9.2,2.3c2.7,1.6,4.7,3.8,6.2,6.7s2.2,6.3,2.2,10.2-.8,7.3-2.2,10.2ZM260.3,50.1l-18.5-43.2h-13.2v58.1h11.6V27.2l15.6,37.8h8.8l15.6-37.8v37.8h11.6V6.9h-13.1l-18.5,43.2ZM121.4,19c2.6-1.6,5.7-2.4,9-2.4s5.9.7,8.4,2.1c2.4,1.4,4.3,3.5,5.6,6.2h13.4c-1.9-5.9-5.4-10.5-10.2-13.8-4.9-3.3-10.6-5-17.1-5s-10.6,1.3-15,3.8c-4.5,2.5-8,6.1-10.6,10.6h0c-2.6,4.5-3.9,9.6-3.9,15.3s1.3,10.8,3.9,15.3c2.6,4.5,6.1,8,10.6,10.5,4.5,2.5,9.5,3.8,15,3.8s12.2-1.6,17.1-4.9c4.9-3.3,8.2-7.9,10.2-13.9h-13.4c-1.3,2.8-3.2,4.9-5.6,6.3-2.4,1.4-5.2,2.1-8.4,2.1s-6.4-.8-9-2.4c-2.6-1.6-4.7-3.8-6.2-6.7-1.5-2.9-2.2-6.2-2.2-10.1s.7-7.3,2.2-10.2c1.5-2.9,3.5-5.1,6.2-6.7ZM513,35c2.2-3.1,3.3-6.5,3.3-10.4s-.8-6.3-2.4-9c-1.6-2.7-3.9-4.8-7.1-6.4s-7-2.4-11.5-2.4h-21.8v58.1h11.6v-22.6h5.5l12.8,22.6h0s13.5,0,13.5,0l-13.9-23.6c4.4-1.2,7.7-3.3,9.9-6.4ZM494.9,33.6h-9.7v-17.1h9.7c3.2,0,5.5.7,7.1,2.2s2.3,3.5,2.3,6.2-.8,4.8-2.3,6.4c-1.6,1.5-3.9,2.3-7.1,2.3ZM452.8,9.9c-4.5-2.5-9.6-3.8-15-3.8s-10.4,1.3-15,3.8c-4.6,2.6-8.2,6.1-10.8,10.6-2.7,4.5-4,9.6-4,15.3s1.3,10.8,4,15.3c2.7,4.5,6.3,8.1,10.8,10.6s9.5,3.8,15,3.8,10.4-1.3,15-3.8c4.5-2.6,8.1-6.1,10.8-10.6,2.6-4.5,3.9-9.7,3.9-15.3s-1.3-10.8-3.9-15.3c-2.6-4.5-6.2-8.1-10.7-10.6ZM453.3,46c-1.5,2.9-3.6,5.2-6.2,6.8-2.7,1.6-5.7,2.4-9.2,2.4s-6.6-.8-9.3-2.4c-2.7-1.6-4.8-3.8-6.3-6.8s-2.2-6.4-2.2-10.2.8-7.3,2.2-10.2,3.6-5.2,6.3-6.7c2.7-1.6,5.8-2.3,9.3-2.3s6.6.8,9.2,2.3c2.7,1.6,4.7,3.8,6.2,6.7s2.2,6.3,2.2,10.2-.8,7.3-2.2,10.2ZM535,16.3h22.1V6.8h-33.7v58.2h33.7v-9.5h-22.1v-15.4h19.6v-9.2h-19.6v-14.6h0ZM366.4,19c2.6-1.6,5.7-2.4,9-2.4s5.9.7,8.4,2.1c2.4,1.4,4.3,3.5,5.6,6.2h13.4c-1.9-5.9-5.4-10.5-10.2-13.8-4.9-3.3-10.6-5-17.1-5s-10.6,1.3-15,3.8c-4.5,2.5-8,6.1-10.6,10.6h0c-2.6,4.5-3.9,9.6-3.9,15.3s1.3,10.8,3.9,15.3c2.6,4.5,6.1,8,10.6,10.5,4.5,2.5,9.5,3.8,15,3.8s12.2-1.6,17.1-4.9c4.9-3.3,8.2-7.9,10.2-13.9h-13.4c-1.3,2.8-3.2,4.9-5.6,6.3-2.4,1.4-5.2,2.1-8.4,2.1s-6.4-.8-9-2.4c-2.6-1.6-4.7-3.8-6.2-6.7-1.5-2.9-2.2-6.2-2.2-10.1s.7-7.3,2.2-10.2c1.5-2.9,3.5-5.1,6.2-6.7ZM332.6,34.4c-2.4-1.1-5.5-2.2-9.2-3.3-2.8-.8-4.9-1.6-6.4-2.2-1.5-.6-2.8-1.5-3.8-2.5-1-1-1.5-2.3-1.5-3.9,0-2.2.7-3.9,2-5.1,1.4-1.2,3.2-1.8,5.5-1.8s4.7.7,6.3,1.9c1.6,1.3,2.4,3,2.5,5h12.8c-.4-5.2-2.5-9.3-6.2-12.2-3.7-2.9-8.6-4.4-14.6-4.4s-7.5.7-10.6,2c-3.1,1.4-5.5,3.3-7.2,5.9-1.7,2.6-2.6,5.6-2.6,9s.9,6.6,2.5,8.8,3.7,3.8,6.1,4.9c2.3,1.1,5.4,2.2,9.2,3.3,2.8.8,4.9,1.5,6.5,2.1,1.6.6,2.9,1.5,3.9,2.6,1.1,1.1,1.6,2.5,1.6,4.2s-.8,3.8-2.3,5.1c-1.6,1.3-3.8,1.9-6.4,1.9s-4.8-.7-6.3-2.1c-1.5-1.4-2.4-3.3-2.5-5.7h-12.5c0,3.6,1,6.6,2.9,9.2,1.9,2.6,4.5,4.6,7.7,6h0c3.2,1.4,6.9,2.1,10.9,2.1s8-.8,11.1-2.4c3.1-1.6,5.5-3.7,7.1-6.4,1.6-2.7,2.4-5.5,2.4-8.7s-.9-6.5-2.6-8.7c-1.7-2.2-3.8-3.9-6.2-5Z"/>
</svg>