<?xml version="1.0" encoding="UTF-8"?>
<svg xmlns="http://www.w3.org/2000/svg" class="ecpz48214 css-w27gol emyb4xn1" viewBox="0 0 191.9 37.3"><path d="M26.1 5l8.7 11-3 13.7-12.7 6-12.6-6L3.4 16l8.8-11zm-7-5L3.8 7.4 0 24l10.6 13.3h17L38 24 34.3 7.4zm2 19.4c1.6 0 2.4-.1 2.9-.6a1.4 1.4 0 0 0 .3-.9 1.1 1.1 0 0 0-.3-.8c-.4-.4-1.2-.5-2.9-.5h-6.3v2.8zm6.8 6.1h-4.6l-4.5-3.7H15v3.7h-3.3V13.9h9.6c3.5 0 4.7.4 5.5 1.2a3.7 3.7 0 0 1 1 2.7 3.6 3.6 0 0 1-1 2.6c-.7.7-1.6 1.1-3.6 1.3z" fill="#E27138"></path><path d="M85 28.2h22.2v-3.9H89.8v-2.8h12.5v-3.6H89.8V15h17.4v-3.9H85zm89.5-3.9V11.1h-5v17.1H192v-3.9h-17.4zm-18-13.2h-7.3l-9.4 17.1h5.3l1.8-3.4h11.6l1.8 3.4h5.5zm-7.6 10l3.8-7.2 3.8 7.2zm-79.3-2c2.2 0 3.5 0 4.1-.7a2 2 0 0 0 0-2.7c-.5-.5-1.6-.6-4.1-.6h-9.4v4h9.4zm9.8 9.1l-6.8.1-6.6-5.5h-5.8v5.5h-4.9V11.1h14.2c5.1 0 6.9.6 8.1 1.9a5.4 5.4 0 0 1 1.4 3.9 5.2 5.2 0 0 1-1.4 3.9c-1 1-2.4 1.6-5.4 1.9zm42.2-3.8c-2 0-3-.3-3.6-.9a4.8 4.8 0 0 1-1.5-3.8A4.8 4.8 0 0 1 118 16c.7-.5 1.6-.9 3.6-.9h14v-3.9h-14c-4 0-5.7.4-7.2 1.7a8.3 8.3 0 0 0-2.8 6.8 8.3 8.3 0 0 0 2.8 6.9c1.5 1.3 3.1 1.7 7.2 1.7h14V17.9h-12v3.6h7.2v2.8h-9.2z" fill="#E27138" class="css-6xat22 emyb4xn0"></path></svg>